<svg width="248" height="64" viewBox="0 0 248 64" fill="none" xmlns="http://www.w3.org/2000/svg">
<path d="M221.665 15.2785C220.601 11.4407 219.033 8.54662 216.969 6.59313C215.039 4.7779 212.817 3.87109 210.296 3.87109C207.209 3.87109 204.682 4.56888 202.708 5.96446C200.415 7.59158 199.268 9.96632 199.268 13.0807V37.0098C199.268 37.5918 199.149 38.0211 198.911 38.2993C198.672 38.579 198.349 38.7189 197.94 38.7189C197.485 38.7189 197.05 38.5694 196.632 38.2671C196.21 37.9648 195.887 37.5452 195.66 37.0098C194.913 35.3361 193.72 31.011 192.088 24.0331C190.612 17.6871 189.057 13.0935 187.424 10.2557C184.996 5.99984 181.717 3.87109 177.589 3.87109C174.502 3.87109 171.971 4.56888 169.998 5.96446C167.707 7.59158 166.561 9.96632 166.561 13.0807V47.2645H175.751V15.2785C175.751 14.674 175.863 14.2029 176.09 13.8653C176.317 13.5276 176.716 13.2897 177.283 13.1498C178.147 13.0324 179.267 14.8943 180.653 18.7321C181.652 21.5458 182.819 25.4416 184.158 30.4162C185.633 35.9036 186.459 38.9279 186.642 39.4842C187.549 42.2529 189.091 44.38 191.271 45.8689C193.221 47.1937 195.423 47.8577 197.874 47.8577C200.709 47.8577 203.15 47.0329 205.192 45.3817C207.37 43.6147 208.457 41.3815 208.457 38.6835V15.2785C208.457 14.674 208.565 14.2029 208.78 13.8653C208.997 13.5276 209.412 13.2897 210.025 13.1498C210.909 13.0324 212.305 15.9281 214.21 21.8352C215.176 24.792 216.257 28.4836 217.448 32.9083H226.561L221.665 15.2785ZM145.628 30.4515H151.346C154.886 30.4515 157.689 29.1058 159.753 26.4095C161.612 23.9945 162.544 21.0442 162.544 17.5616C162.544 14.0534 161.613 11.0934 159.753 8.67846C157.687 6.00788 154.886 4.67178 151.346 4.67178H127.692V13.6723H149.817C150.836 13.6723 151.653 14.0759 152.265 14.8878C152.812 15.6049 153.082 16.4973 153.082 17.5616C153.082 18.5553 152.799 19.4187 152.232 20.1486C151.664 20.8786 150.859 21.2436 149.817 21.2436H138.549C134.851 21.2436 132.049 22.4623 130.144 24.9062C128.51 26.9995 127.693 29.7441 127.693 33.1366V47.2645H136.747V36.6625L162.92 47.2757V37.2236L145.628 30.4515ZM114.384 4.67339V21.2436H97.7396V4.67339H88.5493V47.2628H97.7396V30.4515H114.384V47.2628H123.574V4.67339H114.384Z" fill="url(#paint0_linear_796_9391)"/>
<path d="M16.2475 45.8821C15.8214 44.9592 15.6912 43.9302 15.8294 42.8256C15.1911 42.3996 14.5673 41.9671 13.9611 41.533C11.9916 44.8997 11.4128 48.0366 12.58 50.5641C15.2361 56.3152 26.1404 57.2365 39.228 53.5771C35.4786 52.5288 31.5507 51.1043 27.5858 49.3084C21.8411 49.929 17.6495 48.9193 16.2475 45.8821Z" fill="url(#paint1_linear_796_9391)"/>
<path d="M37.5042 22.636C29.3188 26.5993 22.5242 31.4677 18.0062 36.2654C18.2345 36.4166 18.4692 36.5693 18.7024 36.7205C22.32 31.9388 29.0455 26.7552 37.5042 22.636Z" fill="url(#paint2_linear_796_9391)"/>
<path d="M39.2262 46.5537C34.9687 47.9927 31.0006 48.9413 27.584 49.3095C31.5505 51.1054 35.4768 52.53 39.2262 53.5783C42.9757 52.53 46.9036 51.1054 50.8684 49.3095C47.4518 48.9413 43.4837 47.9943 39.2262 46.5537Z" fill="url(#paint3_linear_796_9391)"/>
<path d="M18.7023 36.7189C18.4692 36.5678 18.2345 36.4167 18.0062 36.2639C16.3276 38.047 14.9626 39.8188 13.9609 41.5311C14.5686 41.9652 15.1909 42.3961 15.8292 42.8238C16.0623 40.9636 17.0672 38.8814 18.7023 36.7189Z" fill="url(#paint4_linear_796_9391)"/>
<path d="M59.75 36.7188C59.9847 36.5676 60.2178 36.4165 60.4478 36.2638C55.9298 31.466 49.1336 26.5975 40.9498 22.6343C49.4069 26.7551 56.134 31.9387 59.75 36.7188Z" fill="url(#paint5_linear_796_9391)"/>
<path d="M64.4932 41.5327C63.8854 41.9668 63.2632 42.3977 62.6249 42.8254C62.7632 43.93 62.633 44.959 62.2069 45.8819C60.8049 48.9191 56.6133 49.9288 50.8702 49.3097C47.4536 48.9416 43.4855 47.9946 39.228 46.554C36.2197 45.5362 33.07 44.2773 29.864 42.7965C25.7577 40.8993 21.9825 38.838 18.7042 36.7189C18.4711 36.5678 18.2363 36.4167 18.008 36.2639C9.44156 30.5835 4.52646 24.5445 6.54427 20.1745C9.28077 14.2481 23.1948 14.8012 38.0253 21.2839C20.5323 13.5905 3.96211 13.1403 0.601776 20.4189C-1.9241 25.8871 3.7129 34.2027 13.9627 41.5327C14.5705 41.9668 15.1927 42.3977 15.831 42.8254C19.164 45.049 22.9118 47.1601 26.9828 49.0396C27.1838 49.1329 27.3848 49.2197 27.5858 49.3097C31.5522 51.1057 35.4785 52.5302 39.228 53.5785C52.3156 57.2379 63.2198 56.3166 65.8759 50.5655C67.0416 48.0364 66.4628 44.8995 64.4932 41.5327Z" fill="url(#paint6_linear_796_9391)"/>
<path opacity="0.3" d="M22.0644 38.769C20.8971 38.0937 19.7717 37.4104 18.7025 36.7206C18.4693 36.5695 18.2346 36.4184 18.0063 36.2656C9.43984 30.5852 4.52474 24.5463 6.54255 20.1762C9.27906 14.2498 23.1931 14.8029 38.0236 21.2856C20.5306 13.5922 3.96039 13.142 0.600056 20.4206C-1.92582 25.8888 3.71118 34.2044 13.961 41.5344C14.5688 41.9686 15.191 42.3995 15.8293 42.8271C19.1623 45.0507 22.9101 47.1618 26.9811 49.0414C27.1821 49.1346 27.3831 49.2214 27.5841 49.3115C30.3865 50.58 33.168 51.654 35.8836 52.5512C30.4813 48.8436 25.4955 44.4141 22.0644 38.769Z" fill="url(#paint7_linear_796_9391)"/>
<path d="M59.7501 36.7189C61.3852 38.8814 62.3901 40.9619 62.6232 42.8238C63.2615 42.3977 63.8838 41.9652 64.4915 41.5311C63.4882 39.8172 62.1232 38.0454 60.4462 36.2639C60.2179 36.4167 59.9848 36.5678 59.7501 36.7189Z" fill="url(#paint8_linear_796_9391)"/>
<path d="M77.8539 20.4183C74.4935 13.1397 57.9234 13.5915 40.4303 21.2833C55.2608 14.8022 69.1733 14.2491 71.9098 20.1739C73.9276 24.544 69.0125 30.5829 60.4461 36.2634C60.2177 36.4145 59.983 36.5672 59.7483 36.7184C56.4699 38.8375 52.6948 40.8987 48.5884 42.7959C45.3824 44.2767 42.2327 45.5356 39.2245 46.5534C43.482 47.9924 47.4501 48.941 50.8667 49.3092C51.0677 49.2175 51.2686 49.1307 51.4696 49.0391C55.539 47.1595 59.2884 45.0501 62.6214 42.8249C63.2597 42.3988 63.882 41.9663 64.4897 41.5322C74.7444 34.2021 80.3798 25.8865 77.8539 20.4183Z" fill="url(#paint9_linear_796_9391)"/>
<path opacity="0.3" d="M77.8542 20.4183C74.4939 13.1397 57.9237 13.5915 40.4307 21.2833C55.2612 14.8022 69.1736 14.2491 71.9101 20.1739C73.7141 24.0777 69.9711 29.316 63.043 34.4401C60.7744 39.7394 57.0603 44.4905 52.761 48.412C56.3304 46.6916 59.6489 44.8089 62.6234 42.8249C63.2617 42.3988 63.8839 41.9663 64.4917 41.5322C74.7447 34.2021 80.3801 25.8865 77.8542 20.4183Z" fill="url(#paint10_linear_796_9391)"/>
<path d="M39.2733 16.6377C43.8676 16.6377 47.5921 12.9132 47.5921 8.31884C47.5921 3.72447 43.8676 0 39.2733 0C34.6789 0 30.9544 3.72447 30.9544 8.31884C30.9544 12.9132 34.6789 16.6377 39.2733 16.6377Z" fill="url(#paint11_linear_796_9391)"/>
<path opacity="0.4" d="M43.4875 9.83964C42.161 13.1485 38.5402 14.8094 35.4017 13.5505C32.2633 12.2916 30.7953 8.58876 32.1218 5.27987C33.4499 1.97098 37.069 0.310113 40.2075 1.56903C43.3476 2.82956 44.8155 6.53236 43.4875 9.83964Z" fill="url(#paint12_linear_796_9391)"/>
<path d="M40.3083 20.9236L41.1364 19.4412C41.2457 19.2466 41.146 19.0022 40.9306 18.9427C40.5366 18.835 39.9096 18.7 39.2713 18.7C38.633 18.7 38.0059 18.8366 37.612 18.9427C37.3966 19.0006 37.2985 19.2466 37.4062 19.4412L38.2343 20.9236H38.588L37.1988 25.8081L39.2697 33.651L41.3406 25.8081L39.9514 20.9236H40.3083Z" fill="url(#paint13_linear_796_9391)"/>
<path d="M53.248 21.4448C51.9152 20.948 48.587 19.7679 44.5578 19.1167C42.3068 21.12 39.2745 35.1852 39.2745 39.1935C39.2745 35.1852 36.0026 21.12 33.9912 19.1167C29.9604 19.7679 26.6338 20.948 25.301 21.4448C23.8748 21.9754 20.8811 37.7963 21.902 38.6677C24.3025 40.7177 38.3146 46.5557 39.2263 46.5557C40.1379 46.5557 54.2481 40.7177 56.6486 38.6677C57.6663 37.7963 54.6726 21.9738 53.248 21.4448Z" fill="url(#paint14_linear_796_9391)"/>
<g opacity="0.6">
<path opacity="0.4" d="M56.7951 36.2251C55.5828 38.8024 39.2249 46.5537 39.2249 46.5537C39.2249 46.5537 51.9813 42.1885 56.2018 38.9745C56.2018 38.9745 56.8659 38.7478 56.8546 37.8795C56.8434 37.0113 56.7951 36.2251 56.7951 36.2251Z" fill="url(#paint15_linear_796_9391)"/>
<path opacity="0.4" d="M21.7511 36.2253C22.965 38.8027 39.3213 46.554 39.3213 46.554C39.3213 46.554 26.5649 42.1888 22.3444 38.9747C22.3444 38.9747 21.6803 38.748 21.6916 37.8798C21.7028 37.0116 21.7511 36.2253 21.7511 36.2253Z" fill="url(#paint16_linear_796_9391)"/>
</g>
<path opacity="0.4" d="M30.5069 20.3672C30.5069 20.3672 26.0307 21.2354 25.476 22.7709C24.9213 24.3063 22.8521 35.4903 23.4534 36.6061C24.0547 37.722 30.5069 41.1257 30.5069 41.1257V20.3672Z" fill="url(#paint17_linear_796_9391)"/>
<path d="M213.745 46.2226V35.7075H221.312V37.6176H215.731V40.4908H221.011V42.3269H215.731V46.2226H213.745Z" fill="#FE651B"/>
<path d="M222.847 46.2221V35.6909H224.818V46.2221H222.847Z" fill="#FE651B"/>
<path d="M236.025 46.2222H233.663L230.594 42.7027H228.684V46.2222H226.698V35.6765C228.369 35.6765 230.038 35.691 231.708 35.691C234.191 35.7054 235.499 37.3615 235.499 39.1815C235.499 40.6254 234.837 42.0853 232.837 42.4904L236.027 46.0855V46.2222H236.025ZM228.684 37.5416V40.9116H231.708C232.972 40.9116 233.514 40.0691 233.514 39.2266C233.514 38.3841 232.957 37.5416 231.708 37.5416H228.684Z" fill="#FE651B"/>
<path d="M246.015 38.5948L242.585 43.1674H242.194L238.839 38.5787V46.2368H236.853V35.7056H239.139L242.434 40.2332L245.728 35.7056H248V46.2368H246.015V38.5948Z" fill="#FE651B"/>
<path d="M93.2508 54.4622V55.2966H91.5915V60.6973H90.5689V55.2966H88.9V54.4622H93.2508Z" fill="black"/>
<path d="M98.19 55.8837C98.4376 55.7438 98.7334 55.6731 99.0743 55.6731V56.731H98.8138C98.4135 56.731 98.1096 56.8323 97.9038 57.0365C97.698 57.2407 97.5951 57.5928 97.5951 58.0945V60.6959H96.5725V55.7535H97.5951V56.4706C97.743 56.2197 97.9408 56.0236 98.19 55.8837Z" fill="black"/>
<path d="M102.271 56.8838C102.476 56.5011 102.758 56.2037 103.113 55.9914C103.468 55.7792 103.862 55.6731 104.293 55.6731C104.682 55.6731 105.022 55.7487 105.311 55.9014C105.6 56.0541 105.833 56.2439 106.006 56.4706V55.7535H107.038V60.6959H106.006V59.9595C105.832 60.1927 105.596 60.3872 105.296 60.5432C104.997 60.6991 104.657 60.7763 104.274 60.7763C103.849 60.7763 103.46 60.667 103.108 60.4483C102.756 60.2296 102.476 59.9258 102.269 59.5335C102.063 59.1412 101.96 58.6974 101.96 58.2006C101.962 57.707 102.065 57.2664 102.271 56.8838ZM105.796 57.3324C105.657 57.0815 105.472 56.8902 105.245 56.7584C105.018 56.6265 104.772 56.5606 104.509 56.5606C104.245 56.5606 104.001 56.6249 103.772 56.7535C103.546 56.8822 103.361 57.0703 103.221 57.3179C103.081 57.5655 103.01 57.8613 103.01 58.2022C103.01 58.543 103.081 58.8421 103.221 59.0993C103.361 59.3566 103.547 59.5528 103.777 59.6862C104.007 59.8213 104.251 59.8888 104.509 59.8888C104.772 59.8888 105.017 59.8229 105.245 59.691C105.472 59.5592 105.657 59.3663 105.796 59.1122C105.936 58.8582 106.007 58.5607 106.007 58.2199C106.007 57.879 105.938 57.5832 105.796 57.3324Z" fill="black"/>
<path d="M110.641 56.879C110.847 56.4931 111.133 56.1956 111.498 55.9866C111.863 55.7776 112.281 55.6731 112.754 55.6731C113.352 55.6731 113.847 55.8146 114.238 56.0992C114.63 56.3838 114.894 56.7889 115.032 57.3147H113.929C113.839 57.0703 113.696 56.879 113.498 56.7407C113.3 56.6024 113.053 56.5349 112.754 56.5349C112.336 56.5349 112.001 56.6828 111.754 56.9786C111.506 57.2745 111.381 57.6893 111.381 58.2215C111.381 58.7537 111.504 59.1701 111.754 59.4691C112.001 59.7682 112.336 59.9177 112.754 59.9177C113.345 59.9177 113.738 59.6573 113.929 59.1379H115.032C114.889 59.6396 114.619 60.0399 114.225 60.3358C113.831 60.6316 113.339 60.7795 112.754 60.7795C112.281 60.7795 111.863 60.6734 111.498 60.4612C111.133 60.2489 110.847 59.9499 110.641 59.564C110.435 59.1781 110.332 58.7312 110.332 58.2231C110.332 57.7118 110.435 57.2648 110.641 56.879Z" fill="black"/>
<path d="M120.298 58.2297L122.576 60.6961H121.195L119.365 58.5705V60.6961H118.343V54.0574H119.365V57.9145L121.159 55.752H122.578L120.298 58.2297Z" fill="black"/>
<path d="M125.545 60.5708C125.42 60.4454 125.357 60.2895 125.357 60.1046C125.357 59.9197 125.42 59.7637 125.545 59.6383C125.671 59.5129 125.827 59.4502 126.012 59.4502C126.192 59.4502 126.343 59.5129 126.47 59.6383C126.597 59.7637 126.658 59.9197 126.658 60.1046C126.658 60.2895 126.595 60.4454 126.47 60.5708C126.344 60.6962 126.192 60.759 126.012 60.759C125.827 60.7606 125.671 60.6962 125.545 60.5708Z" fill="black"/>
<path d="M141.236 54.4622V60.6973H140.214V56.4269L138.312 60.6973H137.603L135.692 56.4269V60.6973H134.67V54.4622H135.773L137.961 59.3515L140.141 54.4622H141.236Z" fill="black"/>
<path d="M144.837 56.8838C145.043 56.5011 145.325 56.2037 145.682 55.9914C146.037 55.7792 146.431 55.6731 146.862 55.6731C147.251 55.6731 147.59 55.7487 147.879 55.9014C148.169 56.0541 148.4 56.2439 148.574 56.4706V55.7535H149.606V60.6959H148.574V59.9595C148.4 60.1927 148.164 60.3872 147.865 60.5432C147.566 60.6991 147.225 60.7763 146.842 60.7763C146.418 60.7763 146.029 60.667 145.677 60.4483C145.323 60.2296 145.045 59.9258 144.837 59.5335C144.632 59.1412 144.529 58.6974 144.529 58.2006C144.527 57.707 144.632 57.2664 144.837 56.8838ZM148.363 57.3324C148.222 57.0815 148.039 56.8902 147.812 56.7584C147.585 56.6265 147.339 56.5606 147.076 56.5606C146.812 56.5606 146.567 56.6249 146.339 56.7535C146.112 56.8822 145.928 57.0703 145.788 57.3179C145.648 57.5655 145.577 57.8613 145.577 58.2022C145.577 58.543 145.648 58.8421 145.788 59.0993C145.928 59.3566 146.114 59.5528 146.344 59.6862C146.574 59.8213 146.818 59.8888 147.076 59.8888C147.339 59.8888 147.584 59.8229 147.812 59.691C148.039 59.5592 148.223 59.3663 148.363 59.1122C148.503 58.8582 148.574 58.5607 148.574 58.2199C148.574 57.879 148.503 57.5832 148.363 57.3324Z" fill="black"/>
<path d="M156.777 55.9159C157.086 56.0767 157.326 56.3162 157.499 56.633C157.673 56.9497 157.76 57.3324 157.76 57.7809V60.6959H156.745V57.9337C156.745 57.4915 156.634 57.1523 156.414 56.9159C156.192 56.6796 155.89 56.5622 155.507 56.5622C155.125 56.5622 154.821 56.6812 154.597 56.9159C154.374 57.1523 154.261 57.4915 154.261 57.9337V60.6959H153.239V55.7535H154.261V56.3194C154.428 56.1169 154.642 55.9577 154.903 55.8435C155.163 55.7294 155.44 55.6731 155.732 55.6731C156.121 55.6731 156.47 55.7535 156.777 55.9159Z" fill="black"/>
<path d="M161.316 56.8838C161.522 56.5011 161.803 56.2037 162.16 55.9914C162.515 55.7792 162.909 55.6731 163.34 55.6731C163.729 55.6731 164.069 55.7487 164.358 55.9014C164.647 56.0541 164.879 56.2439 165.053 56.4706V55.7535H166.085V60.6959H165.053V59.9595C164.879 60.1927 164.643 60.3872 164.344 60.5432C164.044 60.6991 163.704 60.7763 163.321 60.7763C162.896 60.7763 162.507 60.667 162.155 60.4483C161.802 60.2296 161.523 59.9258 161.316 59.5335C161.11 59.1412 161.007 58.6974 161.007 58.2006C161.007 57.707 161.11 57.2664 161.316 56.8838ZM164.842 57.3324C164.7 57.0815 164.517 56.8902 164.29 56.7584C164.064 56.6265 163.818 56.5606 163.554 56.5606C163.29 56.5606 163.046 56.6249 162.818 56.7535C162.591 56.8822 162.406 57.0703 162.266 57.3179C162.126 57.5655 162.056 57.8613 162.056 58.2022C162.056 58.543 162.126 58.8421 162.266 59.0993C162.406 59.3566 162.593 59.5528 162.823 59.6862C163.052 59.8213 163.297 59.8888 163.554 59.8888C163.818 59.8888 164.062 59.8229 164.29 59.691C164.517 59.5592 164.702 59.3663 164.842 59.1122C164.982 58.8582 165.053 58.5607 165.053 58.2199C165.053 57.879 164.982 57.5832 164.842 57.3324Z" fill="black"/>
<path d="M172.729 55.9015C173.024 56.0543 173.256 56.244 173.423 56.4707V55.7536H174.455V60.778C174.455 61.2331 174.359 61.6382 174.168 61.9935C173.976 62.3489 173.7 62.6286 173.338 62.8328C172.976 63.0354 172.544 63.1383 172.042 63.1383C171.372 63.1383 170.815 62.9807 170.373 62.6672C169.931 62.3537 169.679 61.9276 169.619 61.389H170.632C170.709 61.6462 170.875 61.8537 171.13 62.0128C171.384 62.172 171.688 62.2508 172.04 62.2508C172.454 62.2508 172.786 62.1254 173.04 61.8746C173.294 61.6237 173.422 61.2588 173.422 60.7796V59.9548C173.248 60.188 173.013 60.3841 172.717 60.5417C172.421 60.7009 172.085 60.7796 171.708 60.7796C171.277 60.7796 170.884 60.6703 170.527 60.4516C170.172 60.233 169.891 59.9291 169.683 59.5368C169.478 59.1445 169.375 58.7007 169.375 58.2039C169.375 57.7071 169.478 57.2682 169.683 56.8855C169.889 56.5028 170.171 56.2054 170.527 55.9932C170.883 55.7809 171.277 55.6748 171.708 55.6748C172.092 55.6732 172.431 55.7488 172.729 55.9015ZM173.212 57.3325C173.071 57.0817 172.888 56.8903 172.661 56.7585C172.434 56.6267 172.188 56.5607 171.925 56.5607C171.661 56.5607 171.417 56.625 171.188 56.7537C170.962 56.8823 170.777 57.0704 170.637 57.318C170.497 57.5656 170.426 57.8615 170.426 58.2023C170.426 58.5432 170.497 58.8422 170.637 59.0995C170.777 59.3567 170.963 59.5529 171.193 59.6863C171.423 59.8214 171.667 59.8889 171.925 59.8889C172.188 59.8889 172.433 59.823 172.661 59.6912C172.888 59.5593 173.073 59.3664 173.212 59.1123C173.352 58.8583 173.423 58.5609 173.423 58.22C173.423 57.8791 173.352 57.5833 173.212 57.3325Z" fill="black"/>
<path d="M182.581 58.6058H178.804C178.835 59.0013 178.981 59.318 179.243 59.556C179.507 59.7955 179.83 59.9145 180.213 59.9145C180.763 59.9145 181.152 59.6846 181.379 59.2231H182.482C182.332 59.6782 182.062 60.0496 181.67 60.3406C181.277 60.63 180.792 60.7763 180.211 60.7763C179.739 60.7763 179.316 60.6702 178.941 60.458C178.566 60.2457 178.274 59.9467 178.062 59.5608C177.849 59.1749 177.743 58.7279 177.743 58.2199C177.743 57.7118 177.846 57.2648 178.052 56.879C178.258 56.4931 178.549 56.1956 178.922 55.9866C179.295 55.7776 179.724 55.6731 180.21 55.6731C180.676 55.6731 181.092 55.7744 181.456 55.9786C181.821 56.1828 182.105 56.4674 182.308 56.8355C182.51 57.2037 182.613 57.6266 182.613 58.1041C182.618 58.289 182.605 58.4562 182.581 58.6058ZM181.551 57.7809C181.544 57.4047 181.409 57.1024 181.147 56.8757C180.883 56.649 180.559 56.5349 180.169 56.5349C179.816 56.5349 179.515 56.6474 179.264 56.8709C179.013 57.096 178.864 57.3983 178.816 57.7809H181.551Z" fill="black"/>
<path d="M185.856 60.5708C185.731 60.4454 185.668 60.2895 185.668 60.1046C185.668 59.9197 185.731 59.7637 185.856 59.6383C185.982 59.5129 186.137 59.4502 186.322 59.4502C186.502 59.4502 186.654 59.5129 186.781 59.6383C186.908 59.7637 186.969 59.9197 186.969 60.1046C186.969 60.2895 186.906 60.4454 186.781 60.5708C186.655 60.6962 186.502 60.759 186.322 60.759C186.137 60.7606 185.982 60.6962 185.856 60.5708Z" fill="black"/>
<path d="M195.064 55.9241C195.349 55.4402 195.735 55.0607 196.222 54.789C196.709 54.5173 197.243 54.3806 197.823 54.3806C198.487 54.3806 199.077 54.543 199.595 54.8694C200.113 55.1958 200.487 55.6572 200.721 56.2553H199.492C199.331 55.9257 199.106 55.6813 198.819 55.5189C198.531 55.3582 198.2 55.2762 197.823 55.2762C197.41 55.2762 197.044 55.3694 196.72 55.5543C196.397 55.7392 196.145 56.0061 195.963 56.3534C195.781 56.7007 195.69 57.1043 195.69 57.5641C195.69 58.0255 195.781 58.4291 195.963 58.7748C196.145 59.1221 196.399 59.389 196.72 59.5771C197.042 59.7652 197.412 59.86 197.823 59.86C198.2 59.86 198.532 59.7797 198.819 59.6173C199.106 59.4565 199.33 59.2105 199.492 58.8809H200.721C200.487 59.479 200.111 59.9388 199.595 60.262C199.077 60.5852 198.487 60.746 197.823 60.746C197.236 60.746 196.703 60.6093 196.217 60.3376C195.733 60.0659 195.349 59.688 195.064 59.2025C194.78 58.7185 194.638 58.1702 194.638 57.5609C194.638 56.9515 194.781 56.4081 195.064 55.9241Z" fill="black"/>
<path d="M205.081 60.4597C204.705 60.2474 204.409 59.9484 204.193 59.5625C203.978 59.1766 203.87 58.7297 203.87 58.2216C203.87 57.7199 203.981 57.273 204.201 56.8855C204.423 56.4964 204.724 56.1973 205.108 55.9883C205.491 55.7793 205.918 55.6748 206.391 55.6748C206.864 55.6748 207.292 55.7793 207.674 55.9883C208.057 56.1973 208.359 56.4964 208.581 56.8855C208.803 57.2746 208.912 57.7199 208.912 58.2216C208.912 58.7232 208.798 59.1702 208.571 59.5577C208.345 59.9468 208.034 60.2474 207.644 60.4597C207.251 60.6719 206.82 60.778 206.348 60.778C205.878 60.778 205.457 60.6719 205.081 60.4597ZM207.086 59.7008C207.316 59.5754 207.502 59.3872 207.647 59.1364C207.79 58.8856 207.862 58.5801 207.862 58.2216C207.862 57.863 207.793 57.5592 207.657 57.3116C207.518 57.0639 207.337 56.8758 207.11 56.7504C206.883 56.625 206.637 56.5623 206.374 56.5623C206.11 56.5623 205.867 56.625 205.642 56.7504C205.417 56.8758 205.24 57.0623 205.108 57.3116C204.976 57.5592 204.91 57.863 204.91 58.2216C204.91 58.7538 205.047 59.1654 205.319 59.4548C205.59 59.7442 205.933 59.8905 206.346 59.8905C206.608 59.8889 206.854 59.8262 207.086 59.7008Z" fill="black"/>
<path d="M219.241 55.9158C219.55 56.0766 219.791 56.3161 219.968 56.6329C220.144 56.9496 220.233 57.3323 220.233 57.7808V60.6958H219.22V57.9336C219.22 57.4914 219.109 57.1522 218.889 56.9158C218.667 56.6795 218.365 56.5621 217.982 56.5621C217.599 56.5621 217.295 56.6811 217.072 56.9158C216.848 57.1522 216.736 57.4914 216.736 57.9336V60.6958H215.721V57.9336C215.721 57.4914 215.61 57.1522 215.39 56.9158C215.168 56.6795 214.866 56.5621 214.483 56.5621C214.101 56.5621 213.797 56.6811 213.573 56.9158C213.35 57.1522 213.237 57.4914 213.237 57.9336V60.6958H212.215V55.7534H213.237V56.3193C213.404 56.1168 213.617 55.9576 213.874 55.8434C214.131 55.7293 214.406 55.673 214.699 55.673C215.094 55.673 215.446 55.7566 215.757 55.9238C216.067 56.091 216.307 56.3338 216.474 56.6505C216.623 56.3515 216.856 56.1135 217.173 55.9367C217.49 55.7598 217.831 55.6714 218.196 55.6714C218.585 55.673 218.932 55.7534 219.241 55.9158Z" fill="black"/>
<path d="M225.552 55.9062C225.851 55.7503 226.188 55.6731 226.564 55.6731C226.995 55.6731 227.388 55.7792 227.745 55.9914C228.1 56.2037 228.38 56.5011 228.584 56.8838C228.786 57.2664 228.889 57.707 228.889 58.2022C228.889 58.699 228.788 59.1428 228.584 59.5351C228.381 59.9274 228.102 60.2313 227.745 60.4499C227.389 60.6686 226.995 60.7779 226.564 60.7779C226.188 60.7779 225.852 60.7023 225.56 60.5496C225.267 60.3969 225.027 60.2071 224.842 59.9804V63.0482H223.82V55.7551H224.842V56.4818C225.016 56.2535 225.252 56.0622 225.552 55.9062ZM227.637 57.3195C227.495 57.0719 227.31 56.8838 227.081 56.7552C226.851 56.6265 226.603 56.5622 226.341 56.5622C226.084 56.5622 225.839 56.6281 225.609 56.76C225.379 56.8918 225.195 57.0831 225.053 57.334C224.913 57.5848 224.842 57.8806 224.842 58.2215C224.842 58.5623 224.913 58.8598 225.053 59.1138C225.193 59.3679 225.379 59.5608 225.609 59.6926C225.839 59.8245 226.084 59.8904 226.341 59.8904C226.605 59.8904 226.851 59.8229 227.081 59.6878C227.31 59.5528 227.495 59.3582 227.637 59.101C227.777 58.8437 227.847 58.5447 227.847 58.2038C227.847 57.8629 227.778 57.5671 227.637 57.3195Z" fill="black"/>
<path d="M233.213 54.0591V60.6978H232.19V54.0591H233.213Z" fill="black"/>
<path d="M241.296 55.7539L238.263 63.0196H237.205L238.21 60.6159L236.263 55.7539H237.403L238.794 59.521L240.238 55.7539H241.296Z" fill="black"/>
<defs>
<linearGradient id="paint0_linear_796_9391" x1="88.5496" y1="25.8643" x2="226.563" y2="25.8643" gradientUnits="userSpaceOnUse">
<stop stop-color="#008FC7"/>
<stop offset="0.7581" stop-color="#005CAB"/>
</linearGradient>
<linearGradient id="paint1_linear_796_9391" x1="19.2374" y1="50.8565" x2="80.8988" y2="23.1879" gradientUnits="userSpaceOnUse">
<stop stop-color="#0F7AEF"/>
<stop offset="1" stop-color="#6CE3FF"/>
</linearGradient>
<linearGradient id="paint2_linear_796_9391" x1="12.8128" y1="36.5389" x2="74.4735" y2="8.87074" gradientUnits="userSpaceOnUse">
<stop stop-color="#A51AF4"/>
<stop offset="0.7581" stop-color="#6900BC"/>
</linearGradient>
<linearGradient id="paint3_linear_796_9391" x1="22.0099" y1="57.0352" x2="83.6712" y2="29.3667" gradientUnits="userSpaceOnUse">
<stop stop-color="#A51AF4"/>
<stop offset="0.7581" stop-color="#6900BC"/>
</linearGradient>
<linearGradient id="paint4_linear_796_9391" x1="14.6233" y1="40.5744" x2="76.286" y2="12.9052" gradientUnits="userSpaceOnUse">
<stop stop-color="#A51AF4"/>
<stop offset="0.7581" stop-color="#6900BC"/>
</linearGradient>
<linearGradient id="paint5_linear_796_9391" x1="198.777" y1="19.274" x2="-352.053" y2="57.8835" gradientUnits="userSpaceOnUse">
<stop stop-color="#FE651B"/>
<stop offset="1" stop-color="#FCD878"/>
</linearGradient>
<linearGradient id="paint6_linear_796_9391" x1="62.0857" y1="57.431" x2="6.88588" y2="17.6357" gradientUnits="userSpaceOnUse">
<stop stop-color="#FE651B"/>
<stop offset="1" stop-color="#FCD878"/>
</linearGradient>
<linearGradient id="paint7_linear_796_9391" x1="324.706" y1="12.8063" x2="-809.473" y2="92.3048" gradientUnits="userSpaceOnUse">
<stop stop-color="#FE651B"/>
<stop offset="1" stop-color="#FCD878"/>
</linearGradient>
<linearGradient id="paint8_linear_796_9391" x1="22.0996" y1="57.2409" x2="83.764" y2="29.571" gradientUnits="userSpaceOnUse">
<stop stop-color="#A51AF4"/>
<stop offset="0.7581" stop-color="#6900BC"/>
</linearGradient>
<linearGradient id="paint9_linear_796_9391" x1="42.809" y1="39.2877" x2="74.435" y2="13.7135" gradientUnits="userSpaceOnUse">
<stop stop-color="#0F7AEF"/>
<stop offset="1" stop-color="#6CE3FF"/>
</linearGradient>
<linearGradient id="paint10_linear_796_9391" x1="48.9383" y1="34.3315" x2="74.2228" y2="13.8854" gradientUnits="userSpaceOnUse">
<stop stop-color="#A51AF4"/>
<stop offset="0.7581" stop-color="#6900BC"/>
</linearGradient>
<linearGradient id="paint11_linear_796_9391" x1="30.9549" y1="8.31862" x2="47.5922" y2="8.31862" gradientUnits="userSpaceOnUse">
<stop stop-color="#0067A9"/>
<stop offset="0.7581" stop-color="#005CAB"/>
</linearGradient>
<linearGradient id="paint12_linear_796_9391" x1="34.3652" y1="4.32271" x2="38.7903" y2="8.48747" gradientUnits="userSpaceOnUse">
<stop stop-color="#0067A9"/>
<stop offset="0.7581" stop-color="#005CAB"/>
</linearGradient>
<linearGradient id="paint13_linear_796_9391" x1="39.0308" y1="18.0831" x2="39.6971" y2="36.536" gradientUnits="userSpaceOnUse">
<stop stop-color="#0067A9"/>
<stop offset="0.7581" stop-color="#005CAB"/>
</linearGradient>
<linearGradient id="paint14_linear_796_9391" x1="27.1392" y1="17.7743" x2="58.5102" y2="54.5915" gradientUnits="userSpaceOnUse">
<stop stop-color="#0067A9"/>
<stop offset="0.7581" stop-color="#005CAB"/>
</linearGradient>
<linearGradient id="paint15_linear_796_9391" x1="46.7017" y1="39.855" x2="51.6624" y2="45.6768" gradientUnits="userSpaceOnUse">
<stop stop-color="#A51AF4"/>
<stop offset="0.7581" stop-color="#6900BC"/>
</linearGradient>
<linearGradient id="paint16_linear_796_9391" x1="31.8453" y1="39.8552" x2="26.8845" y2="45.6772" gradientUnits="userSpaceOnUse">
<stop stop-color="#A51AF4"/>
<stop offset="0.7581" stop-color="#6900BC"/>
</linearGradient>
<linearGradient id="paint17_linear_796_9391" x1="20.618" y1="25.1867" x2="29.4954" y2="30.1928" gradientUnits="userSpaceOnUse">
<stop stop-color="#E36EFF"/>
<stop offset="1" stop-color="#E36EFF" stop-opacity="0"/>
</linearGradient>
</defs>
</svg>
