<svg width="40" height="40" viewBox="0 0 40 40" fill="none" xmlns="http://www.w3.org/2000/svg">
<g clip-path="url(#clip0_796_9454)">
<path d="M34.7615 14.2856H18.0958C17.0855 14.2864 16.1169 14.6881 15.4025 15.4024C14.6882 16.1168 14.2865 17.0854 14.2858 18.0956V29.9999C14.2869 31.0101 14.6887 31.9785 15.4029 32.6928C16.1172 33.407 17.0856 33.8088 18.0958 33.8099H25.5558L31.5229 38.2856C31.7352 38.4448 31.9875 38.5418 32.2518 38.5656C32.516 38.5894 32.7816 38.5392 33.0189 38.4205C33.2562 38.3019 33.4558 38.1195 33.5953 37.8938C33.7347 37.6682 33.8086 37.4081 33.8086 37.1428V33.8099H34.7601C35.7704 33.8092 36.7392 33.4076 37.4538 32.6933C38.1684 31.979 38.5703 31.0103 38.5715 29.9999V18.0956C38.5707 17.0854 38.1691 16.1168 37.4547 15.4024C36.7404 14.6881 35.7717 14.2864 34.7615 14.2856Z" fill="url(#paint0_linear_796_9454)"/>
<path d="M25.7143 1.42847H5.7143C4.57766 1.42847 3.48757 1.88 2.68385 2.68372C1.88012 3.48745 1.42859 4.57754 1.42859 5.71418V19.9999C1.42859 21.1365 1.88012 22.2266 2.68385 23.0304C3.48757 23.8341 4.57766 24.2856 5.7143 24.2856H7.14287V28.5713C7.14287 28.8366 7.21675 29.0967 7.35623 29.3224C7.49571 29.548 7.69528 29.7304 7.93257 29.8491C8.16986 29.9677 8.43551 30.018 8.69974 29.9941C8.96397 29.9703 9.21635 29.8734 9.42859 29.7142L16.5714 24.3528L25.7143 24.2856C26.8509 24.2856 27.941 23.8341 28.7448 23.0304C29.5485 22.2266 30 21.1365 30 19.9999V5.71418C30 4.57754 29.5485 3.48745 28.7448 2.68372C27.941 1.88 26.8509 1.42847 25.7143 1.42847Z" fill="url(#paint1_linear_796_9454)"/>
<path d="M8.57141 8.57129H22.8571V11.4284H8.57141V8.57129Z" fill="white"/>
<path d="M8.57141 14.2856H15.7143V17.1428H8.57141V14.2856Z" fill="white"/>
<circle cx="32" cy="12" r="7.75" fill="#EB0000" stroke="white" stroke-width="0.5"/>
<path d="M29.48 14.932C30.776 14.044 31.812 13.176 32.588 12.328C33.372 11.472 33.764 10.68 33.764 9.952C33.764 9.52 33.656 9.176 33.44 8.92C33.232 8.664 32.892 8.536 32.42 8.536C31.932 8.536 31.564 8.696 31.316 9.016C31.068 9.328 30.928 9.776 30.896 10.36H29.564C29.62 9.392 29.916 8.652 30.452 8.14C30.996 7.628 31.688 7.372 32.528 7.372C33.352 7.372 33.996 7.592 34.46 8.032C34.932 8.464 35.168 9.064 35.168 9.832C35.168 10.448 34.976 11.072 34.592 11.704C34.216 12.336 33.736 12.92 33.152 13.456C32.568 13.984 31.964 14.44 31.34 14.824H35.36V15.94H29.48V14.932Z" fill="white"/>
</g>
<defs>
<linearGradient id="paint0_linear_796_9454" x1="37.7339" y1="38.5714" x2="30.1556" y2="11.3378" gradientUnits="userSpaceOnUse">
<stop stop-color="#123499"/>
<stop offset="1" stop-color="#093CD4"/>
</linearGradient>
<linearGradient id="paint1_linear_796_9454" x1="29.0146" y1="29.9999" x2="20.099" y2="-2.0396" gradientUnits="userSpaceOnUse">
<stop stop-color="#123499"/>
<stop offset="1" stop-color="#093CD4"/>
</linearGradient>
<clipPath id="clip0_796_9454">
<rect width="40" height="40" fill="white"/>
</clipPath>
</defs>
</svg>
