<svg width="33" height="35" viewBox="0 0 33 35" fill="none" xmlns="http://www.w3.org/2000/svg">
<path d="M0.400005 18.0108C0.293918 18.0108 0.192176 17.9687 0.117162 17.8937C0.0421473 17.8186 4.57418e-06 17.7169 4.57418e-06 17.6108V13.7468C-0.00158748 11.6423 0.412426 9.5581 1.21829 7.61395C2.02415 5.66979 3.20599 3.9039 4.696 2.41762C4.73317 2.38048 4.77728 2.35103 4.82583 2.33094C4.87438 2.31085 4.92641 2.30052 4.97895 2.30054C5.03149 2.30056 5.08351 2.31092 5.13204 2.33105C5.18057 2.35117 5.22467 2.38065 5.2618 2.41782C5.29894 2.45498 5.3284 2.4991 5.34848 2.54764C5.36857 2.59619 5.3789 2.64822 5.37889 2.70076C5.37887 2.7533 5.3685 2.80532 5.34838 2.85385C5.32825 2.90239 5.29877 2.94648 5.2616 2.98362C3.84595 4.3956 2.72308 6.07325 1.95744 7.92028C1.1918 9.76732 0.798464 11.7474 0.800005 13.7468V17.6108C0.800005 17.7169 0.757862 17.8186 0.682847 17.8937C0.607833 17.9687 0.506091 18.0108 0.400005 18.0108ZM31.6544 18.0108C31.5483 18.0108 31.4466 17.9687 31.3716 17.8937C31.2965 17.8186 31.2544 17.7169 31.2544 17.6108V13.7468C31.2559 11.7474 30.8626 9.76732 30.097 7.92028C29.3313 6.07325 28.2085 4.3956 26.7928 2.98362C26.7177 2.90861 26.6756 2.80687 26.6755 2.70076C26.6755 2.64822 26.6858 2.59619 26.7059 2.54764C26.726 2.4991 26.7555 2.45498 26.7926 2.41782C26.8297 2.38065 26.8738 2.35117 26.9224 2.33105C26.9709 2.31092 27.0229 2.30056 27.0755 2.30054C27.1816 2.3005 27.2833 2.34261 27.3584 2.41762C28.8484 3.9039 30.0303 5.66979 30.8361 7.61395C31.642 9.5581 32.056 11.6423 32.0544 13.7468V17.6108C32.0544 17.7169 32.0123 17.8186 31.9372 17.8937C31.8622 17.9687 31.7605 18.0108 31.6544 18.0108ZM28.6544 14.1468C28.5483 14.1468 28.4466 14.1047 28.3716 14.0297C28.2965 13.9546 28.2544 13.8529 28.2544 13.7468C28.2556 12.1418 27.9398 10.5522 27.3251 9.06955C26.7104 7.58686 25.8089 6.24018 24.6724 5.10682C24.6352 5.06968 24.6058 5.02559 24.5856 4.97705C24.5655 4.92852 24.5551 4.8765 24.5551 4.82396C24.5551 4.77142 24.5654 4.71939 24.5855 4.67084C24.6056 4.6223 24.6351 4.57818 24.6722 4.54102C24.7093 4.50385 24.7534 4.47437 24.802 4.45425C24.8505 4.43412 24.9025 4.42376 24.9551 4.42374C25.0076 4.42372 25.0596 4.43405 25.1082 4.45414C25.1567 4.47423 25.2008 4.50368 25.238 4.54082C26.4491 5.74862 27.4096 7.18374 28.0645 8.76377C28.7195 10.3438 29.0559 12.0376 29.0544 13.748C29.0541 13.8539 29.0118 13.9553 28.9368 14.0301C28.8618 14.1048 28.7603 14.1468 28.6544 14.1468ZM3.4 14.1468C3.29392 14.1468 3.19218 14.1047 3.11716 14.0297C3.04215 13.9546 3 13.8529 3 13.7468C2.99856 12.0364 3.33495 10.3426 3.98987 8.76257C4.6448 7.18254 5.60536 5.74742 6.8164 4.53962C6.85357 4.50248 6.89768 4.47303 6.94623 4.45294C6.99478 4.43285 7.04681 4.42252 7.09935 4.42254C7.15188 4.42256 7.20391 4.43292 7.25244 4.45305C7.30097 4.47317 7.34507 4.50265 7.3822 4.53982C7.41934 4.57698 7.4488 4.6211 7.46889 4.66964C7.48897 4.71819 7.4993 4.77022 7.49929 4.82276C7.49927 4.8753 7.4889 4.92732 7.46878 4.97585C7.44865 5.02439 7.41917 5.06848 7.382 5.10562C6.24546 6.23898 5.34396 7.58566 4.72926 9.06835C4.11456 10.551 3.79877 12.1406 3.8 13.7456C3.80016 13.7982 3.78993 13.8504 3.7699 13.8991C3.74987 13.9477 3.72043 13.992 3.68327 14.0292C3.64611 14.0665 3.60196 14.0961 3.55336 14.1163C3.50475 14.1364 3.45263 14.1468 3.4 14.1468Z" fill="#FF9100"/>
<path d="M16.0272 4.1272C21.344 4.1272 25.6544 8.434 25.6544 13.7468V17.6108C25.6545 19.2096 26.0475 20.7839 26.7989 22.1952C27.5502 23.6065 28.6368 24.8116 29.9632 25.7044C31.9288 27.028 30.9912 30.0944 28.6208 30.0944H3.43356C1.06316 30.0944 0.125561 27.028 2.09116 25.7044C3.41749 24.8116 4.50411 23.6065 5.25545 22.1952C6.00678 20.7839 6.39981 19.2096 6.39996 17.6108V13.7468C6.39996 8.434 10.7104 4.1272 16.0272 4.1272Z" fill="#FFC400"/>
<path d="M8.80198 18.0108C8.69589 18.0108 8.59415 17.9687 8.51913 17.8936C8.44412 17.8186 8.40198 17.7169 8.40198 17.6108V13.7468C8.40198 9.5468 11.8224 6.1272 16.0272 6.1272C16.1333 6.1272 16.235 6.16934 16.31 6.24435C16.385 6.31937 16.4272 6.42111 16.4272 6.5272C16.4272 6.63328 16.385 6.73503 16.31 6.81004C16.235 6.88505 16.1333 6.9272 16.0272 6.9272C12.2636 6.9272 9.20198 9.9864 9.20198 13.7468V17.6108C9.20198 17.6633 9.19163 17.7153 9.17153 17.7639C9.15143 17.8124 9.12196 17.8565 9.08482 17.8936C9.04768 17.9308 9.00358 17.9602 8.95505 17.9804C8.90652 18.0005 8.85451 18.0108 8.80198 18.0108Z" fill="#FFE57F"/>
<path d="M19.2292 3.202C19.2304 3.67515 19.1257 4.14257 18.9228 4.57C18.6682 4.49 18.409 4.42027 18.1452 4.3608C18.1522 4.33201 18.1624 4.3041 18.1756 4.2776C18.3587 3.91139 18.4452 3.50445 18.4268 3.09542C18.4084 2.6864 18.2858 2.28886 18.0705 1.94057C17.8552 1.59228 17.5545 1.30479 17.1969 1.10541C16.8393 0.906026 16.4367 0.801365 16.0272 0.801365C15.6178 0.801365 15.2151 0.906026 14.8575 1.10541C14.4999 1.30479 14.1992 1.59228 13.984 1.94057C13.7687 2.28886 13.6461 2.6864 13.6277 3.09542C13.6093 3.50445 13.6957 3.91139 13.8788 4.2776C13.8921 4.3041 13.9023 4.33201 13.9092 4.3608C13.6455 4.42 13.3863 4.48973 13.1316 4.57C12.9294 4.14241 12.8254 3.675 12.8272 3.202C12.8272 2.35278 13.1646 1.53834 13.7651 0.937844C14.3656 0.337353 15.18 0 16.0292 0C16.8784 0 17.6929 0.337353 18.2934 0.937844C18.8939 1.53834 19.2312 2.35278 19.2312 3.202H19.2292ZM19.178 30.0944C19.3357 30.59 19.3742 31.1158 19.2905 31.6291C19.2068 32.1423 19.0031 32.6286 18.6962 33.0484C18.3892 33.4682 17.9875 33.8097 17.5238 34.0451C17.06 34.2805 16.5473 34.4032 16.0272 34.4032C15.5072 34.4032 14.9944 34.2805 14.5307 34.0451C14.0669 33.8097 13.6653 33.4682 13.3583 33.0484C13.0513 32.6286 12.8477 32.1423 12.764 31.6291C12.6802 31.1158 12.7188 30.59 12.8764 30.0944" fill="#FF9100"/>
</svg>
