<svg width="40" height="40" viewBox="0 0 40 40" fill="none" xmlns="http://www.w3.org/2000/svg">
<path d="M10.6667 19.5557C14.5941 19.5557 17.7778 16.3719 17.7778 12.4446C17.7778 8.51724 14.5941 5.3335 10.6667 5.3335C6.73931 5.3335 3.55554 8.51724 3.55554 12.4446C3.55554 16.3719 6.73931 19.5557 10.6667 19.5557Z" fill="#FF5B00"/>
<path d="M10.6667 21.3333C4.78224 21.3333 0 26.1155 0 31.9999V34.6666C0 36.1332 1.20001 37.3332 2.66668 37.3332H18.6667C20.1334 37.3332 21.3334 36.1332 21.3334 34.6666V31.9999C21.3334 26.1155 16.5512 21.3333 10.6667 21.3333Z" fill="#FF5B00"/>
<path d="M27.5557 16C31.974 16 35.5557 12.4183 35.5557 7.99999C35.5557 3.58172 31.974 0 27.5557 0C23.1374 0 19.5557 3.58172 19.5557 7.99999C19.5557 12.4183 23.1374 16 27.5557 16Z" fill="#FFA500"/>
<path d="M27.5556 17.7776C20.6933 17.7776 15.1111 23.3598 15.1111 30.222V34.6664C15.1111 36.1331 16.3111 37.3331 17.7778 37.3331H37.3334C38.8001 37.3331 40.0001 36.1331 40.0001 34.6664V30.222C40.0001 23.3598 34.4178 17.7776 27.5556 17.7776Z" fill="#FFA500"/>
<circle cx="21.4045" cy="30.3645" r="7.75" fill="#EB0000" stroke="white" stroke-width="0.5"/>
<path d="M18.8845 33.2965C20.1805 32.4085 21.2165 31.5405 21.9925 30.6925C22.7765 29.8365 23.1685 29.0445 23.1685 28.3165C23.1685 27.8845 23.0605 27.5405 22.8445 27.2845C22.6365 27.0285 22.2965 26.9005 21.8245 26.9005C21.3365 26.9005 20.9685 27.0605 20.7205 27.3805C20.4725 27.6925 20.3325 28.1405 20.3005 28.7245H18.9685C19.0245 27.7565 19.3205 27.0165 19.8565 26.5045C20.4005 25.9925 21.0925 25.7365 21.9325 25.7365C22.7565 25.7365 23.4005 25.9565 23.8645 26.3965C24.3365 26.8285 24.5725 27.4285 24.5725 28.1965C24.5725 28.8125 24.3805 29.4365 23.9965 30.0685C23.6205 30.7005 23.1405 31.2845 22.5565 31.8205C21.9725 32.3485 21.3685 32.8045 20.7445 33.1885H24.7645V34.3045H18.8845V33.2965Z" fill="white"/>
</svg>
